.
 
http://www.scenetime.com    -  Hottest private tracker on the net. !!!

New release on http://www.scenetime.com

        Seed back for speed


...................................NFO:.................................................                                                                                                     
       
     
     
       
       
     
     
                                         
                                         
                EXVID                    
                                         
         
                                         
         Filled the Archives             
                                         
         
                                         
                With:                    
                                         
         
                                         
                                    
     E240                           
                                    
     SP               (C) 2009      
                                         
     
     
     
                                                                                  
                                                                                   
               Mystic.Pizza.1988.iNTERNAL.DVDRip.XviD-EXViDiNT                      
                                                                                   
                                                                                  
     
                                                                                               
EXViD aims to iNTERNAL those releases which have been lost in the archives.
EXViD aims to PRE non-internal releases which have poor sources and are likely skipped by others.
 
http://www.imdb.com/title/tt0095690/
Subtitles: EN, EN, DE, DE, FR, IT, ES, NL, SV, NO, DA
Date: 2012.01

Director: Donald Petrie

Genres: Comedy | Drama | Romance

Plot:
Sisters Kat and Daisy work along with Jojo at the pizza parlour in Mystic, Connecticut. Kat,
shortly off to Yale, finds herself drawn to a local architect she is babysitting for, while her
more tearaway sister starts dating a guy from the money side of the tracks. Jojo leaves her man
at the altar; she loves him but shies away from commitment. Meanwhile the fame of the pizza
continues to spread; it seems to contain something almost ..... mystic.

Cast:
Annabeth Gish	...	Kat Arujo
Julia Roberts	...	Daisy Arujo
Lili Taylor	...	Jojo
Vincent D'Onofrio	...	Bill (as Vincent Phillip D'Onofrio)
William R. Moses	...	Tim Travers
Adam Storke	...	Leona
Conchata Ferrell	...	Mrs. Arujo
Joanna Merlin	...	Phoebe Travers
Porscha Radcliffe	...	Manny
Arthur Walsh	...	Jake
John Fiore	...	Mr. Barboza
Gene Amoroso	...	Mrs. Barboza
Sheila Ferrini	...	Nicole Travers
Janet Zarish	...	Hector Freshette
Louis Turenne	...	Serena

Stats:
Format                                   : AVI
Format/Info                              : Audio Video Interleave
File size                                : 702 MiB
Duration                                 : 1h 39mn
Overall bit rate mode                    : Variable
Overall bit rate                         : 984 Kbps

Video
ID                                       : 0
Format                                   : MPEG-4 Visual
Format profile                           : Advanced Simple@L5
Format settings, BVOP                    : 2
Format settings, QPel                    : No
Format settings, GMC                     : No warppoints
Format settings, Matrix                  : Default (H.263)
Codec ID                                 : XVID
Codec ID/Hint                            : XviD
Duration                                 : 1h 39mn
Bit rate                                 : 848 Kbps
Width                                    : 640 pixels
Height                                   : 336 pixels
Display aspect ratio                     : 1.905
Frame rate                               : 25.000 fps
Color space                              : YUV
Chroma subsampling                       : 4:2:0
Bit depth                                : 8 bits
Scan type                                : Progressive
Compression mode                         : Lossy
Bits/(Pixel*Frame)                       : 0.158
Stream size                              : 606 MiB (86%)
Writing library                          : XviD 64

Audio
ID                                       : 1
Format                                   : MPEG Audio
Format version                           : Version 1
Format profile                           : Layer 3
Mode                                     : Joint stereo
Codec ID                                 : 55
Codec ID/Hint                            : MP3
Duration                                 : 1h 39mn
Bit rate mode                            : Variable
Bit rate                                 : 123 Kbps
Channel(s)                               : 2 channels
Sampling rate                            : 48.0 KHz
Compression mode                         : Lossy
Stream size                              : 87.6 MiB (12%)
Alignment                                : Aligned on interleaves
Interleave, duration                     : 24 ms (0.60 video frame)
Interleave, preload duration             : 133 ms
Writing library                          : LAME3.98.4



Release notes:
Enjoy!

Looking for:
75TB+ Archives
DUTCH/FLEMiSH Archives
                                                                                                    
Greets: CRBS EPiSODE FiCO FLS iLS KLASSiGER LiPSYNC MADE NODLABS RUNNER SPRiNTER      
   

                                                                    ASCII DONE BY XX^NFO 2oo9